<svg display="none" xmlns="http://www.w3.org/2000/svg">
<symbol id='add-friend'>
<g clip-path="url(#clip0)">
	<path d="M199.671,242.677c66.985,0,121.319-54.353,121.319-121.271C320.99,54.363,266.666,0,199.671,0
		C132.638,0,78.38,54.373,78.38,121.406C78.38,188.324,132.628,242.677,199.671,242.677z"/>
	<path d="M353.006,275.974c-6.407-13.722-14.478-27.521-24.786-40.688c-5.546-7.057-15.663-14.803-25.445-20.109
		c-25.36,28.419-62.118,46.416-103.104,46.416c-40.956,0-77.705-17.997-103.036-46.35c-9.562,5.432-19.412,13.178-24.776,20.215
		c-17.404,22.711-44.265,66.728-48.549,126.044c-0.899,12.518,5.059,31.633,15.52,38.929
		c19.852,13.895,62.672,31.671,151.833,31.671c30.868,0,56.878-1.903,78.862-4.867c-8.874-14.965-14.066-32.369-14.066-50.997
		C255.449,321.836,298.968,277.504,353.006,275.974z"/>
	<path d="M353.006,294.946c-44.887,0-81.281,36.395-81.281,81.281c0,44.886,36.395,81.28,81.281,81.28s81.281-36.395,81.281-81.28
		C434.287,331.341,397.901,294.946,353.006,294.946z M393.13,391.183h-31.355v31.365c0,5.192-4.217,9.399-9.409,9.399
		s-9.41-4.207-9.41-9.399v-31.355l-31.354-0.01c-5.202,0.01-9.41-4.197-9.4-9.391c0-5.201,4.207-9.409,9.4-9.409h31.364v-31.355
		c0-5.192,4.208-9.399,9.4-9.391c5.183,0,9.399,4.198,9.409,9.4v31.346h31.346c5.192,0,9.4,4.208,9.41,9.41
		C402.53,386.976,398.322,391.183,393.13,391.183z"/>
</g>
</symbol>

<symbol id='accept-friend'>
	<g clip-path="url(#clip0)" fill-rule="evenodd" clip-rule="evenodd">
		<path d="M61.44,0c33.932,0,61.44,27.508,61.44,61.44c0,33.932-27.508,61.439-61.44,61.439 C27.507,122.88,0,95.372,0,61.44C0,27.508,27.507,0,61.44,0L61.44,0z M34.258,63.075c0.824-4.78,6.28-7.44,10.584-4.851 c0.39,0.233,0.763,0.51,1.11,0.827l0.034,0.032c1.932,1.852,4.096,3.778,6.242,5.688l1.841,1.652l21.84-22.91 c1.304-1.366,2.259-2.25,4.216-2.689c6.701-1.478,11.412,6.712,6.663,11.719L59.565,81.108c-2.564,2.735-7.147,2.985-9.901,0.373 c-1.581-1.466-3.297-2.958-5.034-4.467c-3.007-2.613-6.077-5.28-8.577-7.919C34.551,67.595,33.903,65.139,34.258,63.075 L34.258,63.075z"/>
	</g>
</symbol>

<symbol id='decline-friend'>
	<g clip-path="url(#clip0)">
		<path d="M256,33C132.3,33,32,133.3,32,257c0,123.7,100.3,224,224,224c123.7,0,224-100.3,224-224C480,133.3,379.7,33,256,33z    M364.3,332.5c1.5,1.5,2.3,3.5,2.3,5.6c0,2.1-0.8,4.2-2.3,5.6l-21.6,21.7c-1.6,1.6-3.6,2.3-5.6,2.3c-2,0-4.1-0.8-5.6-2.3L256,289.8   l-75.4,75.7c-1.5,1.6-3.6,2.3-5.6,2.3c-2,0-4.1-0.8-5.6-2.3l-21.6-21.7c-1.5-1.5-2.3-3.5-2.3-5.6c0-2.1,0.8-4.2,2.3-5.6l75.7-76   l-75.9-75c-3.1-3.1-3.1-8.2,0-11.3l21.6-21.7c1.5-1.5,3.5-2.3,5.6-2.3c2.1,0,4.1,0.8,5.6,2.3l75.7,74.7l75.7-74.7   c1.5-1.5,3.5-2.3,5.6-2.3c2.1,0,4.1,0.8,5.6,2.3l21.6,21.7c3.1,3.1,3.1,8.2,0,11.3l-75.9,75L364.3,332.5z"/>
	</g>
</symbol>
</svg>
