<svg width="19" height="18" viewBox="0 0 19 18" fill="none" xmlns="http://www.w3.org/2000/svg">
<g clip-path="url(#clip0)">
<path d="M9.06572 18C4.0877 18 0.0375977 13.9625 0.0375977 9C0.0375977 4.03749 4.0877 0 9.06572 0C14.0437 0 18.0938 4.03749 18.0938 9C18.0938 13.9625 14.0437 18 9.06572 18ZM9.06572 1.12501C4.7098 1.12501 1.16612 4.65765 1.16612 9C1.16612 13.3424 4.7098 16.875 9.06572 16.875C13.4216 16.875 16.9653 13.3424 16.9653 9C16.9653 4.65765 13.4216 1.12501 9.06572 1.12501Z" fill="#999999"/>
<path d="M9.0656 13.5C6.57659 13.5 4.55151 11.4813 4.55151 9.00002C4.55151 6.51872 6.57655 4.5 9.0656 4.5C10.2894 4.5 11.4345 4.98011 12.2908 5.85187L11.4841 6.63847C10.8422 5.98477 9.98366 5.62496 9.0656 5.62496C7.19869 5.62496 5.68003 7.13888 5.68003 8.99998C5.68003 10.8611 7.19869 12.375 9.0656 12.375C9.98309 12.375 10.8416 12.0152 11.4841 11.3615L12.2897 12.1492C11.4339 13.0205 10.2889 13.5 9.0656 13.5Z" fill="#999999"/>
</g>
<defs>
<clipPath id="clip0">
<rect width="18.0563" height="18" fill="white" transform="translate(0.0375977)"/>
</clipPath>
</defs>
</svg>
