<svg display="none" xmlns="http://www.w3.org/2000/svg">
<symbol id='grid'>
<g clip-path="url(#clip0)">
<path d="M12.0854 0H4.04742C1.81569 0 0 1.81569 0 4.04742V12.0854C0 14.3171 1.81569 16.1328 4.04742 16.1328H12.0854C14.3171 16.1328 16.1328 14.3171 16.1328 12.0854V4.04742C16.1328 1.81569 14.3171 0 12.0854 0ZM13.3984 12.0854C13.3984 12.8094 12.8094 13.3984 12.0854 13.3984H4.04742C3.32343 13.3984 2.73438 12.8094 2.73438 12.0854V4.04742C2.73438 3.32343 3.32343 2.73438 4.04742 2.73438H12.0854C12.8094 2.73438 13.3984 3.32343 13.3984 4.04742V12.0854Z" />
<path d="M30.8984 0H22.9688C20.7071 0 18.8672 1.83996 18.8672 4.10156V12.0312C18.8672 14.2929 20.7071 16.1328 22.9688 16.1328H30.8984C33.16 16.1328 35 14.2929 35 12.0312V4.10156C35 1.83996 33.16 0 30.8984 0ZM32.2656 12.0312C32.2656 12.7851 31.6523 13.3984 30.8984 13.3984H22.9688C22.2149 13.3984 21.6016 12.7851 21.6016 12.0312V4.10156C21.6016 3.3477 22.2149 2.73438 22.9688 2.73438H30.8984C31.6523 2.73438 32.2656 3.3477 32.2656 4.10156V12.0312Z" />
<path d="M12.0854 18.8672H4.04742C1.81569 18.8672 0 20.6829 0 22.9146V30.9526C0 33.1843 1.81569 35 4.04742 35H12.0854C14.3171 35 16.1328 33.1843 16.1328 30.9526V22.9146C16.1328 20.6829 14.3171 18.8672 12.0854 18.8672ZM13.3984 30.9526C13.3984 31.6766 12.8094 32.2656 12.0854 32.2656H4.04742C3.32343 32.2656 2.73438 31.6766 2.73438 30.9526V22.9146C2.73438 22.1906 3.32343 21.6016 4.04742 21.6016H12.0854C12.8094 21.6016 13.3984 22.1906 13.3984 22.9146V30.9526Z" />
<path d="M30.8984 18.8672H22.9688C20.7071 18.8672 18.8672 20.7071 18.8672 22.9688V30.8984C18.8672 33.16 20.7071 35 22.9688 35H30.8984C33.16 35 35 33.16 35 30.8984V22.9688C35 20.7071 33.16 18.8672 30.8984 18.8672ZM32.2656 30.8984C32.2656 31.6523 31.6523 32.2656 30.8984 32.2656H22.9688C22.2149 32.2656 21.6016 31.6523 21.6016 30.8984V22.9688C21.6016 22.2149 22.2149 21.6016 22.9688 21.6016H30.8984C31.6523 21.6016 32.2656 22.2149 32.2656 22.9688V30.8984Z" />
</g>
</symbol>
</svg>
