<svg width="50" height="50" viewBox="0 0 50 50" fill="none" xmlns="http://www.w3.org/2000/svg">
<path d="M36.1375 26.0742C35.5985 26.0742 35.1611 25.637 35.1611 25.0977C35.1611 24.5583 35.5977 24.1211 36.1366 24.1211H36.1376C36.6767 24.1211 37.1135 24.5583 37.1135 25.0977C37.1135 25.637 36.6765 26.0742 36.1375 26.0742Z" fill="#F44348"/>
<path d="M49.0241 29.0039H39.2649C38.726 29.0039 38.2891 28.5667 38.2891 28.0273V22.168C38.2891 21.6286 38.7261 21.1914 39.2649 21.1914H49.0241C49.5631 21.1914 50 21.6286 50 22.168V28.0273C50 28.5667 49.563 29.0039 49.0241 29.0039ZM40.2408 27.0508H48.0481V23.1445H40.2408V27.0508Z" fill="#F44348"/>
<path d="M33.2428 10.0225H30.1589V8.10742C30.1589 7.56836 29.7217 7.13086 29.183 7.13086H19.4238C18.8852 7.13086 18.448 7.56836 18.448 8.10742V10.0605H15.7788V4.00586C15.7788 3.4668 15.3416 3.0293 14.8029 3.0293H11.7112V1.07422C11.7112 0.535156 11.275 0.0976562 10.7354 0.0976562H0.975879C0.437207 0.0976562 0 0.535156 0 1.07422V6.93359C0 7.47266 0.437207 7.91016 0.975879 7.91016H10.7351C11.2747 7.91016 11.7109 7.47266 11.7109 6.93359V4.98242H13.8268V17.0918H11.7109V15.1367C11.7109 14.5977 11.2747 14.1602 10.7351 14.1602H0.975879C0.437207 14.1602 0 14.5977 0 15.1367V20.9961C0 21.5352 0.437207 21.9727 0.975879 21.9727H10.7351C11.2747 21.9727 11.7109 21.5352 11.7109 20.9961V19.0449H14.8026C15.3413 19.0449 15.7785 18.6074 15.7785 18.0684V12.0137H18.4477V13.9668C18.4477 14.5059 18.8849 14.9434 19.4235 14.9434H29.1827C29.7214 14.9434 30.1586 14.5059 30.1586 13.9668V11.9756H32.2666V38.1475H30.1586V36.0371C30.1586 35.498 29.7214 35.0605 29.1827 35.0605H19.4235C18.8849 35.0605 18.4477 35.498 18.4477 36.0371V37.9902H15.7785V31.9355C15.7785 31.3965 15.3413 30.959 14.8026 30.959H11.7109V29.0039C11.7109 28.4648 11.2747 28.0273 10.7351 28.0273H0.975879C0.437207 28.0273 0 28.4648 0 29.0039V34.8633C0 35.4023 0.437207 35.8398 0.975879 35.8398H10.7351C11.2747 35.8398 11.7109 35.4023 11.7109 34.8633V32.9121H13.8268V45.0215H11.7109V43.0664C11.7109 42.5273 11.2747 42.0898 10.7351 42.0898H0.975879C0.437207 42.0898 0 42.5273 0 43.0664V48.9258C0 49.4648 0.437207 49.9023 0.975879 49.9023H10.7351C11.2747 49.9023 11.7109 49.4648 11.7109 48.9258V46.9746H14.8026C15.3413 46.9746 15.7785 46.5371 15.7785 45.998V39.9434H18.4477V41.8965C18.4477 42.4355 18.8849 42.873 19.4235 42.873H29.1827C29.7214 42.873 30.1586 42.4355 30.1586 41.8965V40.1006H33.2425C33.7812 40.1006 34.2184 39.6631 34.2184 39.124V10.999C34.2187 10.46 33.7814 10.0225 33.2428 10.0225ZM9.75918 5.95703H1.95186V2.05078H9.75918V5.95703ZM9.75918 20.0195H1.95186V16.1133H9.75918V20.0195ZM28.207 12.9902H20.3997V9.08398H28.207V12.9902ZM9.75918 33.8867H1.95186V29.9805H9.75918V33.8867ZM9.75918 47.9492H1.95186V44.043H9.75918V47.9492ZM28.207 40.9199H20.3997V37.0137H28.207V40.9199Z" fill="#F44348"/>
</svg>
