<svg width="31" height="30" viewBox="0 0 31 30" fill="none" xmlns="http://www.w3.org/2000/svg">
<path d="M15.6428 8.26123C11.9163 8.26123 8.9104 11.2671 8.9104 14.9937C8.9104 18.7202 11.9163 21.7261 15.6428 21.7261C19.3694 21.7261 22.3752 18.7202 22.3752 14.9937C22.3752 11.2671 19.3694 8.26123 15.6428 8.26123ZM15.6428 19.3706C13.2346 19.3706 11.2659 17.4077 11.2659 14.9937C11.2659 12.5796 13.2288 10.6167 15.6428 10.6167C18.0569 10.6167 20.0198 12.5796 20.0198 14.9937C20.0198 17.4077 18.051 19.3706 15.6428 19.3706ZM24.2209 7.98584C24.2209 8.85889 23.5178 9.55615 22.6506 9.55615C21.7776 9.55615 21.0803 8.85303 21.0803 7.98584C21.0803 7.11865 21.7834 6.41553 22.6506 6.41553C23.5178 6.41553 24.2209 7.11865 24.2209 7.98584ZM28.6799 9.57959C28.5803 7.47607 28.0999 5.61279 26.5588 4.07764C25.0237 2.54248 23.1604 2.06201 21.0569 1.95654C18.8889 1.8335 12.3909 1.8335 10.2229 1.95654C8.12524 2.05615 6.26196 2.53662 4.72095 4.07178C3.17993 5.60693 2.70532 7.47021 2.59985 9.57373C2.47681 11.7417 2.47681 18.2397 2.59985 20.4077C2.69946 22.5112 3.17993 24.3745 4.72095 25.9097C6.26196 27.4448 8.11938 27.9253 10.2229 28.0308C12.3909 28.1538 18.8889 28.1538 21.0569 28.0308C23.1604 27.9312 25.0237 27.4507 26.5588 25.9097C28.094 24.3745 28.5745 22.5112 28.6799 20.4077C28.803 18.2397 28.803 11.7476 28.6799 9.57959ZM25.8791 22.7339C25.4221 23.8823 24.5374 24.7671 23.3831 25.23C21.6545 25.9155 17.553 25.7573 15.6428 25.7573C13.7327 25.7573 9.62524 25.9097 7.90259 25.23C6.75415 24.7729 5.86938 23.8882 5.40649 22.7339C4.72095 21.0054 4.87915 16.9038 4.87915 14.9937C4.87915 13.0835 4.72681 8.97607 5.40649 7.25342C5.86353 6.10498 6.74829 5.22021 7.90259 4.75732C9.6311 4.07178 13.7327 4.22998 15.6428 4.22998C17.553 4.22998 21.6604 4.07764 23.3831 4.75732C24.5315 5.21435 25.4163 6.09912 25.8791 7.25342C26.5647 8.98193 26.4065 13.0835 26.4065 14.9937C26.4065 16.9038 26.5647 21.0112 25.8791 22.7339Z" fill="#fff"/>
</svg>
