<svg display="none" viewBox="0 0 35 35" xmlns="http://www.w3.org/2000/svg">
<symbol id='list'>
<g clip-path="url(#clip0)">
<path d="M38.0047 34.5245H11.2569C10.1545 34.5245 9.26099 33.631 9.26099 32.5286C9.26099 31.4262 10.1545 30.5327 11.2569 30.5327H38.0041C39.1065 30.5327 40 31.4262 40 32.5286C40 33.631 39.1071 34.5245 38.0047 34.5245Z" />
<path d="M38.0047 21.9962H11.2569C10.1545 21.9962 9.26099 21.1027 9.26099 20.0003C9.26099 18.8979 10.1545 18.0044 11.2569 18.0044H38.0041C39.1065 18.0044 40 18.8979 40 20.0003C40.0006 21.1027 39.1071 21.9962 38.0047 21.9962Z" />
<path d="M38.0047 9.46789H11.2569C10.1545 9.46789 9.26099 8.57439 9.26099 7.47198C9.26099 6.36958 10.1545 5.47607 11.2569 5.47607H38.0041C39.1065 5.47607 40 6.36958 40 7.47198C40 8.57439 39.1071 9.46789 38.0047 9.46789Z" />
<path d="M2.6805 10.3068C4.16091 10.3068 5.36101 9.10671 5.36101 7.62631C5.36101 6.1459 4.16091 4.9458 2.6805 4.9458C1.2001 4.9458 0 6.1459 0 7.62631C0 9.10671 1.2001 10.3068 2.6805 10.3068Z" />
<path d="M2.6805 22.6808C4.16091 22.6808 5.36101 21.4807 5.36101 20.0003C5.36101 18.5199 4.16091 17.3198 2.6805 17.3198C1.2001 17.3198 0 18.5199 0 20.0003C0 21.4807 1.2001 22.6808 2.6805 22.6808Z" />
<path d="M2.6805 35.0549C4.16091 35.0549 5.36101 33.8548 5.36101 32.3744C5.36101 30.894 4.16091 29.6938 2.6805 29.6938C1.2001 29.6938 0 30.894 0 32.3744C0 33.8548 1.2001 35.0549 2.6805 35.0549Z" />
</g>
</symbol>
</svg>
