<svg width="48" height="30" viewBox="0 0 48 30" fill="none" xmlns="http://www.w3.org/2000/svg">
<g id="mastercard">
<path id="Vector" d="M14.8072 30C22.985 30 29.6144 23.2843 29.6144 15C29.6144 6.71573 22.985 0 14.8072 0C6.62941 0 0 6.71573 0 15C0 23.2843 6.62941 30 14.8072 30Z" fill="#EE0005"/>
<path id="Vector_2" d="M33.1932 30C41.371 30 48.0004 23.2843 48.0004 15C48.0004 6.71573 41.371 0 33.1932 0C25.0154 0 18.386 6.71573 18.386 15C18.386 23.2843 25.0154 30 33.1932 30Z" fill="#F9A000"/>
<path id="Vector_3" d="M18.3971 14.9997C18.3971 19.7611 20.5845 23.9997 24.0059 26.7497C27.4272 23.9997 29.6147 19.7611 29.6147 14.9997C29.6147 10.2384 27.4272 5.99973 24.0059 3.24973C20.5845 5.98836 18.3971 10.2384 18.3971 14.9997Z" fill="#FF6300"/>
</g>
</svg>
