<svg width="380" height="114" viewBox="0 0 380 114" fill="none" xmlns="http://www.w3.org/2000/svg">
<g clip-path="url(#clip0_519_1963)">
<path d="M368.934 53.4924L354.75 37.5966C354.338 37.1318 353.701 36.9307 353.096 37.0718L333.227 41.7075C332.622 41.8486 332.14 42.3105 331.976 42.9098L326.291 63.4413C326.134 63.9978 326.274 64.5961 326.66 65.0259L340.845 80.9217C341.257 81.3865 341.893 81.5876 342.498 81.4465L362.368 76.8108C362.972 76.6697 363.455 76.2078 363.618 75.6085L369.304 55.077C369.46 54.5204 369.321 53.9222 368.934 53.4924ZM360.612 73.7286L342.709 77.9056L329.813 63.4549L334.983 44.7896L352.886 40.6127L365.781 55.0633L360.612 73.7286Z" fill="#170A32"/>
<path d="M336.739 61.0038C336.118 60.3013 335.044 60.2432 334.341 60.8661C333.641 61.4915 333.578 62.5666 334.205 63.2661L343.232 73.3816C343.658 73.8636 344.3 74.043 344.885 73.9064C345.153 73.8438 345.41 73.7157 345.63 73.5195C346.33 72.8941 346.393 71.819 345.766 71.1195L336.739 61.0038Z" fill="#170A32"/>
<path d="M350.709 44.6128L338.704 47.4135C337.789 47.627 337.221 48.5404 337.435 49.4556C337.648 50.3709 338.562 50.9387 339.477 50.7252L351.481 47.9245C352.396 47.7109 352.964 46.7975 352.751 45.8823C352.537 44.9671 351.624 44.3992 350.709 44.6128Z" fill="#170A32"/>
<path d="M372.27 50.9241C372.688 51.3705 373.308 51.5615 373.903 51.4227L393.773 46.787C394.368 46.6482 394.84 46.2021 395.017 45.6169L400.896 25.9132C401.065 25.3367 400.919 24.7126 400.513 24.2704L386.522 9.20242C386.104 8.75602 385.483 8.565 384.888 8.70382L365.018 13.3395C364.423 13.4783 363.951 13.9244 363.774 14.5096L357.895 34.2133C357.726 34.7897 357.872 35.4139 358.279 35.8561L372.27 50.9241ZM366.751 16.427L384.7 12.2395L397.357 25.8727L392.04 43.6996L374.091 47.8871L361.434 34.2539L366.751 16.427Z" fill="#170A32"/>
<path d="M396.179 50.597C395.762 50.1506 395.141 49.9595 394.546 50.0984L374.676 54.734C374.081 54.8728 373.609 55.3189 373.432 55.9042L367.553 75.6078C367.384 76.1843 367.53 76.8084 367.936 77.2506L381.927 92.3186C382.345 92.765 382.966 92.956 383.561 92.8172L403.431 88.1815C404.026 88.0427 404.498 87.5966 404.675 87.0114L410.554 67.3077C410.723 66.7313 410.577 66.1071 410.17 65.6649L396.179 50.597ZM401.698 85.0941L383.749 89.2816L371.092 75.6484L376.409 57.8215L394.358 53.634L407.015 67.2672L401.698 85.0941Z" fill="#170A32"/>
</g>
<g clip-path="url(#clip1_519_1963)">
<path d="M294.934 69.4924L280.75 53.5966C280.338 53.1318 279.701 52.9307 279.096 53.0718L259.227 57.7075C258.622 57.8486 258.14 58.3105 257.976 58.9098L252.291 79.4413C252.134 79.9978 252.274 80.5961 252.66 81.0259L266.845 96.9217C267.257 97.3865 267.893 97.5876 268.498 97.4465L288.368 92.8108C288.972 92.6697 289.455 92.2078 289.618 91.6085L295.304 71.077C295.46 70.5204 295.321 69.9222 294.934 69.4924ZM286.612 89.7286L268.709 93.9056L255.813 79.4549L260.983 60.7896L278.886 56.6127L291.781 71.0633L286.612 89.7286Z" fill="#170A32"/>
<path d="M262.739 77.0038C262.118 76.3013 261.044 76.2432 260.341 76.8661C259.641 77.4915 259.578 78.5666 260.205 79.2661L269.232 89.3816C269.658 89.8636 270.3 90.043 270.885 89.9064C271.153 89.8438 271.41 89.7157 271.63 89.5195C272.33 88.8941 272.393 87.819 271.766 87.1195L262.739 77.0038Z" fill="#170A32"/>
<path d="M276.709 60.6128L264.704 63.4135C263.789 63.627 263.221 64.5404 263.435 65.4556C263.648 66.3709 264.562 66.9387 265.477 66.7252L277.481 63.9245C278.396 63.7109 278.964 62.7975 278.751 61.8823C278.537 60.9671 277.624 60.3992 276.709 60.6128Z" fill="#170A32"/>
<path d="M298.27 66.9241C298.688 67.3705 299.308 67.5615 299.903 67.4227L319.773 62.787C320.368 62.6482 320.84 62.2021 321.017 61.6169L326.896 41.9132C327.065 41.3367 326.919 40.7126 326.513 40.2704L312.522 25.2024C312.104 24.756 311.483 24.565 310.888 24.7038L291.018 29.3395C290.423 29.4783 289.951 29.9244 289.774 30.5096L283.895 50.2133C283.726 50.7897 283.872 51.4139 284.279 51.8561L298.27 66.9241ZM292.751 32.427L310.7 28.2395L323.357 41.8727L318.04 59.6996L300.091 63.8871L287.434 50.2539L292.751 32.427Z" fill="#170A32"/>
<path d="M322.179 66.597C321.762 66.1506 321.141 65.9595 320.546 66.0984L300.676 70.734C300.081 70.8728 299.609 71.3189 299.432 71.9042L293.553 91.6078C293.384 92.1843 293.53 92.8084 293.936 93.2506L307.927 108.319C308.345 108.765 308.966 108.956 309.561 108.817L329.431 104.182C330.026 104.043 330.498 103.597 330.675 103.011L336.554 83.3077C336.723 82.7313 336.577 82.1071 336.17 81.6649L322.179 66.597ZM327.698 101.094L309.749 105.282L297.092 91.6484L302.409 73.8215L320.358 69.634L333.015 83.2672L327.698 101.094Z" fill="#170A32"/>
<path d="M323.268 95.1443L311.088 97.9858C310.173 98.1993 309.605 99.1127 309.819 100.028C310.032 100.943 310.946 101.511 311.861 101.297L324.04 98.456C324.955 98.2425 325.523 97.3291 325.31 96.4138C325.096 95.4986 324.183 94.9308 323.268 95.1443Z" fill="#170A32"/>
<path d="M317.475 74.029C316.785 74.669 316.746 75.7438 317.384 76.432L326.046 85.7595C326.478 86.2231 327.108 86.3917 327.68 86.2581C327.962 86.1925 328.227 86.0573 328.451 85.8482C329.14 85.2082 329.179 84.1334 328.541 83.4452L319.879 74.1177C319.234 73.426 318.155 73.3896 317.475 74.029Z" fill="#170A32"/>
</g>
<g clip-path="url(#clip2_519_1963)">
<path d="M220.934 84.4924L206.75 68.5966C206.338 68.1318 205.701 67.9307 205.096 68.0718L185.227 72.7075C184.622 72.8486 184.14 73.3105 183.976 73.9098L178.291 94.4413C178.134 94.9978 178.274 95.5961 178.66 96.0259L192.845 111.922C193.257 112.387 193.893 112.588 194.498 112.446L214.368 107.811C214.972 107.67 215.455 107.208 215.618 106.608L221.304 86.077C221.46 85.5204 221.321 84.9222 220.934 84.4924ZM212.612 104.729L194.709 108.906L181.813 94.4549L186.983 75.7896L204.886 71.6127L217.781 86.0633L212.612 104.729Z" fill="#170A32"/>
<path d="M188.739 92.0038C188.118 91.3013 187.044 91.2432 186.341 91.8661C185.641 92.4915 185.578 93.5666 186.205 94.2661L195.232 104.382C195.658 104.864 196.3 105.043 196.885 104.906C197.153 104.844 197.41 104.716 197.63 104.519C198.33 103.894 198.393 102.819 197.766 102.12L188.739 92.0038Z" fill="#170A32"/>
<path d="M202.709 75.6128L190.704 78.4135C189.789 78.627 189.221 79.5404 189.435 80.4556C189.648 81.3709 190.562 81.9387 191.477 81.7252L203.481 78.9245C204.396 78.7109 204.964 77.7975 204.751 76.8823C204.537 75.9671 203.624 75.3992 202.709 75.6128Z" fill="#170A32"/>
<path d="M224.27 81.9241C224.688 82.3705 225.308 82.5615 225.903 82.4227L245.773 77.787C246.368 77.6482 246.84 77.2021 247.017 76.6169L252.896 56.9132C253.065 56.3367 252.919 55.7126 252.513 55.2704L238.522 40.2024C238.104 39.756 237.483 39.565 236.888 39.7038L217.018 44.3395C216.423 44.4783 215.951 44.9244 215.774 45.5096L209.895 65.2133C209.726 65.7897 209.872 66.4139 210.279 66.8561L224.27 81.9241ZM218.751 47.427L236.7 43.2395L249.357 56.8727L244.04 74.6996L226.091 78.8871L213.434 65.2539L218.751 47.427Z" fill="#170A32"/>
<path d="M248.179 81.597C247.762 81.1506 247.141 80.9595 246.546 81.0984L226.676 85.734C226.081 85.8728 225.609 86.3189 225.432 86.9042L219.553 106.608C219.384 107.184 219.53 107.808 219.936 108.251L233.927 123.319C234.345 123.765 234.966 123.956 235.561 123.817L255.431 119.182C256.026 119.043 256.498 118.597 256.675 118.011L262.554 98.3077C262.723 97.7313 262.577 97.1071 262.17 96.6649L248.179 81.597ZM253.698 116.094L235.749 120.282L223.092 106.648L228.409 88.8215L246.358 84.634L259.015 98.2672L253.698 116.094Z" fill="#170A32"/>
<path d="M249.268 110.144L237.088 112.986C236.173 113.199 235.605 114.113 235.819 115.028C236.032 115.943 236.946 116.511 237.861 116.297L250.04 113.456C250.955 113.242 251.523 112.329 251.31 111.414C251.096 110.499 250.183 109.931 249.268 110.144Z" fill="#170A32"/>
<path d="M243.475 89.029C242.785 89.669 242.746 90.7438 243.384 91.432L252.046 100.76C252.478 101.223 253.108 101.392 253.68 101.258C253.962 101.192 254.227 101.057 254.451 100.848C255.14 100.208 255.179 99.1334 254.541 98.4452L245.879 89.1177C245.234 88.426 244.155 88.3896 243.475 89.029Z" fill="#170A32"/>
</g>
<g clip-path="url(#clip3_519_1963)">
<path d="M138.934 56.4924L124.75 40.5966C124.338 40.1318 123.701 39.9307 123.096 40.0718L103.227 44.7075C102.622 44.8486 102.14 45.3105 101.976 45.9098L96.2908 66.4413C96.1342 66.9978 96.2738 67.5961 96.6605 68.0259L110.845 83.9217C111.257 84.3865 111.893 84.5876 112.498 84.4465L132.368 79.8108C132.972 79.6697 133.455 79.2078 133.618 78.6085L139.304 58.077C139.46 57.5204 139.321 56.9222 138.934 56.4924ZM130.612 76.7286L112.709 80.9056L99.8131 66.4549L104.983 47.7896L122.886 43.6127L135.781 58.0633L130.612 76.7286Z" fill="#170A32"/>
<path d="M106.739 64.0038C106.118 63.3013 105.044 63.2432 104.341 63.8661C103.641 64.4915 103.578 65.5666 104.205 66.2661L113.232 76.3816C113.658 76.8636 114.3 77.043 114.885 76.9064C115.153 76.8438 115.41 76.7157 115.63 76.5195C116.33 75.8941 116.393 74.819 115.766 74.1195L106.739 64.0038Z" fill="#170A32"/>
<path d="M120.709 47.6128L108.704 50.4135C107.789 50.627 107.221 51.5404 107.435 52.4556C107.648 53.3709 108.562 53.9387 109.477 53.7252L121.481 50.9245C122.396 50.7109 122.964 49.7975 122.751 48.8823C122.537 47.9671 121.624 47.3992 120.709 47.6128Z" fill="#170A32"/>
<path d="M142.27 53.9241C142.688 54.3705 143.308 54.5615 143.903 54.4227L163.773 49.787C164.368 49.6482 164.84 49.2021 165.017 48.6169L170.896 28.9132C171.065 28.3367 170.919 27.7126 170.513 27.2704L156.522 12.2024C156.104 11.756 155.483 11.565 154.888 11.7038L135.018 16.3395C134.423 16.4783 133.951 16.9244 133.774 17.5096L127.895 37.2133C127.726 37.7897 127.872 38.4139 128.279 38.8561L142.27 53.9241ZM136.751 19.427L154.7 15.2395L167.357 28.8727L162.04 46.6996L144.091 50.8871L131.434 37.2539L136.751 19.427Z" fill="#170A32"/>
<path d="M166.179 53.597C165.762 53.1506 165.141 52.9595 164.546 53.0984L144.676 57.734C144.081 57.8728 143.609 58.3189 143.432 58.9042L137.553 78.6078C137.384 79.1843 137.53 79.8084 137.936 80.2506L151.927 95.3186C152.345 95.765 152.966 95.956 153.561 95.8172L173.431 91.1815C174.026 91.0427 174.498 90.5966 174.675 90.0114L180.554 70.3077C180.723 69.7313 180.577 69.1071 180.17 68.6649L166.179 53.597ZM171.698 88.0941L153.749 92.2816L141.092 78.6484L146.409 60.8215L164.358 56.634L177.015 70.2672L171.698 88.0941Z" fill="#170A32"/>
<path d="M167.268 82.1443L155.088 84.9858C154.173 85.1993 153.605 86.1127 153.819 87.0279C154.032 87.9432 154.946 88.511 155.861 88.2975L168.04 85.456C168.955 85.2425 169.523 84.3291 169.31 83.4138C169.096 82.4986 168.183 81.9308 167.268 82.1443Z" fill="#170A32"/>
<path d="M161.475 61.029C160.785 61.669 160.746 62.7438 161.384 63.432L170.046 72.7595C170.478 73.2231 171.108 73.3917 171.68 73.2581C171.962 73.1925 172.227 73.0573 172.451 72.8482C173.14 72.2082 173.179 71.1334 172.541 70.4452L163.879 61.1177C163.234 60.426 162.155 60.3896 161.475 61.029Z" fill="#170A32"/>
</g>
<path d="M65.9338 73.4924L51.7497 57.5966C51.3378 57.1318 50.701 56.9307 50.0962 57.0718L30.2267 61.7075C29.622 61.8486 29.1398 62.3105 28.9762 62.9098L23.2908 83.4413C23.1342 83.9978 23.2738 84.5961 23.6605 85.0259L37.8446 100.922C38.2565 101.387 38.8933 101.588 39.4981 101.446L59.3676 96.8108C59.9724 96.6697 60.4545 96.2078 60.6182 95.6085L66.3035 75.077C66.4601 74.5204 66.3206 73.9222 65.9338 73.4924ZM57.6119 93.7286L39.7087 97.9056L26.8131 83.4549L31.9826 64.7896L49.8858 60.6127L62.7812 75.0633L57.6119 93.7286Z" fill="#170A32"/>
<path d="M33.7394 81.0038C33.1185 80.3013 32.0444 80.2432 31.3408 80.8661C30.6409 81.4915 30.5782 82.5666 31.2051 83.2661L40.2316 93.3816C40.6578 93.8636 41.2997 94.043 41.8851 93.9064C42.1535 93.8438 42.41 93.7157 42.6302 93.5195C43.3301 92.8941 43.3928 91.819 42.7659 91.1195L33.7394 81.0038Z" fill="#170A32"/>
<path d="M47.7086 64.6128L35.7042 67.4135C34.7889 67.627 34.2211 68.5404 34.4347 69.4556C34.6482 70.3709 35.5616 70.9387 36.4768 70.7252L48.4813 67.9245C49.3965 67.7109 49.9643 66.7975 49.7508 65.8823C49.5371 64.9671 48.6239 64.3992 47.7086 64.6128Z" fill="#170A32"/>
<path d="M69.2697 70.9241C69.6876 71.3705 70.3085 71.5615 70.9035 71.4227L90.773 66.787C91.368 66.6482 91.8402 66.2021 92.0175 65.6169L97.896 45.9132C98.065 45.3367 97.9193 44.7126 97.5127 44.2704L83.5217 29.2024C83.1038 28.756 82.4829 28.565 81.8879 28.7038L62.0184 33.3395C61.4235 33.4783 60.9512 33.9244 60.774 34.5096L54.8954 54.2133C54.7265 54.7897 54.8721 55.4139 55.2787 55.8561L69.2697 70.9241ZM63.7515 36.427L81.7 32.2395L94.3571 45.8727L89.0398 63.6996L71.0913 67.8871L58.4342 54.2539L63.7515 36.427Z" fill="#170A32"/>
<path d="M93.1795 70.597C92.7615 70.1506 92.1407 69.9595 91.5457 70.0984L71.6762 74.734C71.0812 74.8728 70.6089 75.3189 70.4317 75.9042L64.5532 95.6078C64.3842 96.1843 64.5298 96.8084 64.9364 97.2506L78.9274 112.319C79.3453 112.765 79.9662 112.956 80.5612 112.817L100.431 108.182C101.026 108.043 101.498 107.597 101.675 107.011L107.554 87.3077C107.723 86.7313 107.577 86.1071 107.17 85.6649L93.1795 70.597ZM98.6975 105.094L80.749 109.282L68.0919 95.6484L73.4092 77.8215L91.3577 73.634L104.015 87.2672L98.6975 105.094Z" fill="#170A32"/>
<path d="M94.2675 99.1443L82.0885 101.986C81.1732 102.199 80.6054 103.113 80.8189 104.028C81.0325 104.943 81.9459 105.511 82.8611 105.297L95.0402 102.456C95.9554 102.242 96.5232 101.329 96.3097 100.414C96.0962 99.4986 95.1828 98.9308 94.2675 99.1443Z" fill="#170A32"/>
<path d="M88.475 78.029C87.7855 78.669 87.7463 79.7438 88.3844 80.432L97.0464 89.7595C97.4784 90.2231 98.1077 90.3917 98.6802 90.2581C98.9616 90.1925 99.2267 90.0573 99.4507 89.8482C100.14 89.2082 100.179 88.1334 99.5414 87.4452L90.8794 78.1177C90.2338 77.426 89.1545 77.3896 88.475 78.029Z" fill="#170A32"/>
<g clip-path="url(#clip4_519_1963)">
<path d="M-12.7303 44.9241C-12.3124 45.3705 -11.6915 45.5615 -11.0965 45.4227L8.77299 40.787C9.36799 40.6482 9.84024 40.2021 10.0175 39.6169L15.896 19.9132C16.065 19.3367 15.9193 18.7126 15.5127 18.2704L1.52175 3.20242C1.10383 2.75602 0.482945 2.565 -0.112054 2.70382L-19.9816 7.3395C-20.5765 7.47832 -21.0488 7.92437 -21.226 8.50962L-27.1046 28.2133C-27.2735 28.7897 -27.1279 29.4139 -26.7213 29.8561L-12.7303 44.9241ZM-18.2485 10.427L-0.300017 6.23946L12.3571 19.8727L7.03982 37.6996L-10.9087 41.8871L-23.5658 28.2539L-18.2485 10.427Z" fill="#170A32"/>
<path d="M11.1795 44.597C10.7615 44.1506 10.1407 43.9595 9.54565 44.0984L-10.3238 48.734C-10.9188 48.8728 -11.3911 49.3189 -11.5683 49.9042L-17.4468 69.6078C-17.6158 70.1843 -17.4702 70.8084 -17.0636 71.2506L-3.0726 86.3186C-2.65468 86.765 -2.0338 86.956 -1.4388 86.8172L18.4307 82.1815C19.0257 82.0427 19.4979 81.5966 19.6752 81.0114L25.5537 61.3077C25.7227 60.7313 25.577 60.1071 25.1704 59.6649L11.1795 44.597ZM16.6975 79.0941L-1.25099 83.2816L-13.9081 69.6484L-8.59083 51.8215L9.35769 47.634L22.0148 61.2672L16.6975 79.0941Z" fill="#170A32"/>
<path d="M12.2675 73.1443L0.0884584 75.9858C-0.82678 76.1993 -1.39459 77.1127 -1.18106 78.0279C-0.967529 78.9432 -0.0541365 79.511 0.861102 79.2975L13.0402 76.456C13.9554 76.2425 14.5232 75.3291 14.3097 74.4138C14.0962 73.4986 13.1828 72.9308 12.2675 73.1443Z" fill="#170A32"/>
<path d="M6.47501 52.029C5.78546 52.669 5.74635 53.7438 6.38437 54.432L15.0464 63.7595C15.4784 64.2231 16.1077 64.3917 16.6802 64.2581C16.9616 64.1925 17.2267 64.0573 17.4507 63.8482C18.1403 63.2082 18.1794 62.1334 17.5414 61.4452L8.87938 52.1177C8.23384 51.426 7.15454 51.3896 6.47501 52.029Z" fill="#170A32"/>
</g>
<defs>
<clipPath id="clip0_519_1963">
<rect width="81.6124" height="81.6124" fill="white" transform="translate(317 24.5425) rotate(-13.1326)"/>
</clipPath>
<clipPath id="clip1_519_1963">
<rect width="81.6124" height="81.6124" fill="white" transform="translate(243 40.5425) rotate(-13.1326)"/>
</clipPath>
<clipPath id="clip2_519_1963">
<rect width="81.6124" height="81.6124" fill="white" transform="translate(169 55.5425) rotate(-13.1326)"/>
</clipPath>
<clipPath id="clip3_519_1963">
<rect width="81.6124" height="81.6124" fill="white" transform="translate(87 27.5425) rotate(-13.1326)"/>
</clipPath>
<clipPath id="clip4_519_1963">
<rect width="81.6124" height="81.6124" fill="white" transform="translate(-68 18.5425) rotate(-13.1326)"/>
</clipPath>
</defs>
</svg>
