<svg width="50" height="51" viewBox="0 0 50 51" fill="none" xmlns="http://www.w3.org/2000/svg">
<g clip-path="url(#clip0_146_1292)">
<path d="M23.0719 33.9791C23.4538 33.5965 23.4538 32.9773 23.0719 32.5947C22.6897 32.2132 22.0705 32.2132 21.6879 32.5947C21.3065 32.9773 21.3065 33.5965 21.6879 33.9791C22.0705 34.3605 22.6897 34.3605 23.0719 33.9791Z" fill="#F44348"/>
<path d="M18.4395 10.7602C18.4395 16.6933 23.2665 21.5207 29.1996 21.5207C35.1327 21.5207 39.9598 16.6933 39.9598 10.7602C39.9598 4.82701 35.1327 0 29.1996 0C23.2665 0 18.4395 4.82701 18.4395 10.7602V10.7602ZM38.0036 10.7602C38.0036 15.6147 34.0541 19.5641 29.1996 19.5641C24.3451 19.5641 20.3956 15.6147 20.3956 10.7602C20.3956 5.90601 24.3451 1.95656 29.1996 1.95656C34.0541 1.95656 38.0036 5.90601 38.0036 10.7602Z" fill="#F44348"/>
<path d="M11.3161 49.8085C11.6952 50.1908 12.3125 50.195 12.6967 49.8166L17.4392 45.1443C18.2449 44.3386 18.4899 43.1457 18.1356 42.1088L19.1557 41.125C19.705 40.5944 20.4281 40.3021 21.1926 40.3021H34.1967C36.5038 40.3021 38.6843 39.4161 40.3374 37.8073C40.4054 37.7412 39.821 38.4296 49.209 27.2092C50.6014 25.5619 50.3931 23.0882 48.7442 21.6942C47.1057 20.3133 44.6511 20.5117 43.2548 22.1307L37.4826 28.0635C36.7537 27.1664 35.6422 26.6072 34.4413 26.6072H23.5332C21.9811 25.9579 20.3341 25.6292 18.6348 25.6292C13.9243 25.6292 9.8113 27.8047 7.604 31.8837C6.67407 31.7075 5.6933 31.9888 4.98773 32.6944L0.334249 37.3617C-0.0456742 37.7427 -0.0464386 38.3592 0.33272 38.7415L11.3161 49.8085ZM18.6344 27.5853C20.1327 27.5853 21.5813 27.8869 22.9408 28.4816C23.0646 28.5359 23.198 28.5638 23.333 28.5638H34.4413C35.502 28.5638 36.3979 29.4288 36.3979 30.52C36.3979 31.599 35.5203 32.4766 34.4413 32.4766H26.4603C25.9202 32.4766 25.4822 32.9146 25.4822 33.4546C25.4822 33.9951 25.9202 34.4327 26.4603 34.4327H34.4413C36.5989 34.4327 38.3541 32.6776 38.3541 30.52C38.3541 30.348 38.3418 30.1775 38.3197 30.0086C43.9035 24.2688 44.6908 23.4624 44.7245 23.4222C45.4216 22.5993 46.6592 22.495 47.4825 23.1891C48.3066 23.8859 48.4109 25.1227 47.7119 25.9502L38.9381 36.439C37.6569 37.669 35.9748 38.3459 34.1967 38.3459H21.1926C19.9182 38.3459 18.712 38.8332 17.7969 39.7173L16.9656 40.5195L9.30219 32.8565C11.0933 29.4964 14.4541 27.5853 18.6344 27.5853V27.5853ZM6.37212 34.0769C6.69471 33.7543 7.19006 33.6962 7.58336 33.9393C7.75268 34.0425 7.2665 33.5999 16.0559 42.3771C16.447 42.7681 16.4259 43.3911 16.0613 43.7558L12.0182 47.7388L2.40663 38.0539L6.37212 34.0769Z" fill="#F44348"/>
<path d="M28.0259 4.89107V6.03734C26.8873 6.44096 26.0694 7.52836 26.0694 8.80382C26.0694 10.4217 27.3857 11.7385 29.004 11.7385C29.5433 11.7385 29.9821 12.1773 29.9821 12.7166C29.9821 13.2559 29.5433 13.6947 29.004 13.6947C28.5863 13.6947 28.1349 13.4321 27.7339 12.9547C27.3861 12.5411 26.7692 12.488 26.3556 12.8354C25.9421 13.1833 25.8886 13.8001 26.2364 14.2137C26.7593 14.8356 27.3743 15.269 28.0259 15.4876V16.6293C28.0259 17.1698 28.464 17.6074 29.004 17.6074C29.5441 17.6074 29.9821 17.1698 29.9821 16.6293V15.483C31.1207 15.079 31.9387 13.9916 31.9387 12.7166C31.9387 11.0983 30.6223 9.78191 29.004 9.78191C28.4647 9.78191 28.0259 9.34313 28.0259 8.80382C28.0259 8.26451 28.4647 7.82535 29.004 7.82535C29.3507 7.82535 29.7165 8.00231 30.062 8.33675C30.4503 8.71247 31.0695 8.70215 31.4452 8.3142C31.821 7.92587 31.8106 7.30668 31.4227 6.93096C30.9262 6.45051 30.4293 6.17876 29.9821 6.03046V4.89107C29.9821 4.35062 29.5441 3.9126 29.004 3.9126C28.464 3.9126 28.0259 4.35062 28.0259 4.89107V4.89107Z" fill="#F44348"/>
</g>
<defs>
<clipPath id="clip0_146_1292">
<rect width="50" height="50.0978" fill="white"/>
</clipPath>
</defs>
</svg>
