<svg width="50" height="50" viewBox="0 0 50 50" fill="none" xmlns="http://www.w3.org/2000/svg">
<path d="M49.9999 35.3099C49.9999 32.3841 49.1237 29.559 47.4659 27.14C46.2735 25.4001 44.738 23.9552 42.9586 22.8814C45.0536 20.8974 46.3644 18.0933 46.3644 14.987C46.3644 8.98884 41.4844 4.10889 35.4865 4.10889C31.9298 4.10889 28.5981 5.86789 26.5744 8.75541C26.0601 8.6805 25.5347 8.6401 24.9999 8.6401C24.4651 8.6401 23.9399 8.68064 23.4256 8.75541C21.4018 5.86789 18.0701 4.10889 14.5135 4.10889C8.51542 4.10889 3.63547 8.98884 3.63547 14.987C3.63547 18.0933 4.94627 20.8974 7.0414 22.8814C5.26185 23.955 3.72634 25.4001 2.53408 27.1399C0.876282 29.559 0 32.3841 0 35.3099V41.3605H10.4865V45.8916H39.5136V41.3605H50V35.3099H49.9999ZM35.4865 6.79371C40.0042 6.79371 43.6797 10.4692 43.6797 14.9871C43.6797 19.505 40.0042 23.1805 35.4865 23.1805C35.4055 23.1805 35.3246 23.1793 35.2435 23.1769C35.2497 23.1597 35.2548 23.1421 35.2608 23.1249C35.4007 22.7284 35.5173 22.3211 35.6109 21.9051C35.6175 21.8756 35.625 21.8463 35.6313 21.8167C35.6556 21.7045 35.6769 21.5912 35.6977 21.4776C35.7075 21.4239 35.7176 21.3703 35.7266 21.3165C35.7435 21.2152 35.7588 21.1134 35.7729 21.0113C35.7827 20.9403 35.7916 20.8692 35.8 20.7981C35.8106 20.7079 35.821 20.6176 35.8294 20.5267C35.838 20.4339 35.8445 20.341 35.8506 20.248C35.8555 20.1747 35.8615 20.1017 35.8649 20.028C35.8722 19.87 35.8764 19.7117 35.8769 19.5534C35.8769 19.5417 35.8779 19.5303 35.8779 19.5185C35.8779 19.5121 35.8773 19.5058 35.8773 19.4995C35.8771 19.3378 35.8724 19.177 35.8651 19.0167C35.863 18.9701 35.8602 18.9237 35.8575 18.8772C35.8496 18.741 35.8392 18.6054 35.8265 18.4705C35.8235 18.4399 35.8211 18.4093 35.818 18.3788C35.4124 14.458 32.9353 11.102 29.362 9.54967C30.9018 7.81979 33.129 6.79371 35.4865 6.79371ZM22.165 11.8304C22.1912 11.8209 22.2177 11.8119 22.2438 11.8025C22.3253 11.7734 22.4075 11.7457 22.49 11.719C22.5526 11.699 22.6155 11.6797 22.6789 11.6612C22.7249 11.6476 22.7711 11.6346 22.8174 11.6217C22.9001 11.599 22.9832 11.5769 23.0671 11.5566C23.6873 11.406 24.334 11.3242 24.9997 11.3242C25.6659 11.3248 26.3129 11.4067 26.9332 11.5573C27.0165 11.5774 27.0991 11.5994 27.1814 11.622C27.2284 11.635 27.2753 11.6482 27.3219 11.662C27.3845 11.6804 27.4468 11.6994 27.5086 11.7192C27.5923 11.7461 27.6754 11.7741 27.7578 11.8036C27.7831 11.8126 27.8085 11.8212 27.8338 11.8304C30.5739 12.8438 32.6283 15.2824 33.0933 18.2419C33.0969 18.2655 33.1004 18.2893 33.1039 18.313C33.1188 18.4133 33.1313 18.5144 33.1424 18.6157C33.1465 18.653 33.1508 18.6902 33.1544 18.7277C33.1633 18.8202 33.1698 18.9133 33.1757 19.0067C33.1782 19.0468 33.1815 19.0866 33.1834 19.1268C33.189 19.2461 33.1921 19.3661 33.1925 19.4868C33.1925 19.4972 33.1932 19.5074 33.1932 19.5179C33.1932 19.5227 33.1929 19.5277 33.1929 19.5325C33.1927 19.6493 33.1892 19.7653 33.1841 19.8809C33.1825 19.9173 33.1808 19.9536 33.1787 19.9899C33.1724 20.1016 33.1641 20.2127 33.1533 20.323C33.1492 20.3657 33.1435 20.4083 33.1387 20.4508C33.1305 20.5223 33.1214 20.5935 33.1114 20.6644C33.1037 20.7196 33.0959 20.7749 33.087 20.8298C33.0735 20.9134 33.0584 20.9965 33.0423 21.0793C33.028 21.153 33.0122 21.2264 32.9959 21.2997C32.9861 21.3439 32.9759 21.3881 32.9653 21.432C32.9391 21.5408 32.9104 21.649 32.8798 21.7568C32.8675 21.7996 32.8561 21.8427 32.8432 21.8851C32.8246 21.9469 32.8045 22.0081 32.7844 22.0693C32.7683 22.1183 32.7518 22.167 32.7348 22.2156C32.7155 22.2708 32.6964 22.3261 32.676 22.3809C32.6412 22.4739 32.6047 22.5661 32.5667 22.6575C32.5498 22.6983 32.5318 22.7387 32.5142 22.7794C32.4811 22.8555 32.447 22.9312 32.4115 23.0061C32.4074 23.015 32.4032 23.0238 32.3991 23.0327C32.3863 23.0593 32.3737 23.086 32.3607 23.1126C32.3209 23.1937 32.2796 23.2738 32.2372 23.3533C32.2207 23.3841 32.2047 23.4154 32.1878 23.4461C32.1867 23.4482 32.1856 23.45 32.1846 23.4519C32.1381 23.5365 32.0897 23.6197 32.0404 23.7024C32.0208 23.7352 32.0015 23.768 31.9815 23.8004C31.9278 23.8875 31.8726 23.9737 31.8158 24.0585C31.7805 24.1113 31.7436 24.163 31.7071 24.2149C31.6761 24.2589 31.6452 24.3031 31.6134 24.3465C31.5722 24.4026 31.5302 24.458 31.4875 24.5132C31.4585 24.5506 31.4292 24.5878 31.3997 24.6249C31.3546 24.6812 31.3091 24.7373 31.2626 24.7925C31.2338 24.8267 31.2041 24.8603 31.1747 24.894C31.1264 24.9494 31.0782 25.005 31.0285 25.0591C30.999 25.0912 30.9684 25.1221 30.9383 25.1537C30.8575 25.239 30.7748 25.3223 30.6905 25.4041C30.6405 25.4525 30.5907 25.5011 30.5394 25.5483C30.5039 25.5809 30.4676 25.6126 30.4315 25.6446C30.3727 25.6969 30.3135 25.7485 30.2532 25.799C30.2226 25.8246 30.1917 25.85 30.1607 25.8752C30.0878 25.9346 30.014 25.9927 29.9389 26.0496C29.9185 26.0651 29.8984 26.0808 29.8779 26.0961C28.5141 27.1099 26.8259 27.7109 24.9998 27.7109C23.1735 27.7109 21.4851 27.1098 20.1213 26.0957C20.1012 26.0806 20.0815 26.0652 20.0615 26.05C19.9861 25.993 19.9119 25.9344 19.8388 25.8748C19.808 25.8497 19.7773 25.8246 19.7469 25.7991C19.6864 25.7484 19.6271 25.6964 19.568 25.6441C19.5322 25.6122 19.4959 25.5807 19.4606 25.5483C19.4092 25.501 19.3593 25.4523 19.3091 25.4038C19.2244 25.3218 19.1415 25.2382 19.0605 25.1527C19.0308 25.1214 19.0005 25.0909 18.9713 25.0592C18.9215 25.005 18.8733 24.9493 18.825 24.8939C18.7956 24.8602 18.7661 24.8267 18.7372 24.7925C18.6907 24.7373 18.6453 24.6812 18.6002 24.625C18.5706 24.5879 18.5412 24.5508 18.5123 24.5132C18.4697 24.4581 18.4277 24.4027 18.3865 24.3466C18.3547 24.3031 18.3237 24.2588 18.2926 24.2146C18.2561 24.1628 18.2194 24.1113 18.1842 24.0587C18.1271 23.9734 18.0717 23.887 18.0179 23.7996C17.9981 23.7675 17.9791 23.7352 17.9597 23.7028C17.9097 23.6189 17.8607 23.5346 17.8136 23.4488C17.7962 23.4173 17.7799 23.3852 17.7628 23.3535C17.7204 23.2738 17.6789 23.1934 17.6391 23.1122C17.6248 23.0833 17.611 23.0542 17.5972 23.0252C17.595 23.0208 17.593 23.0163 17.591 23.0119C17.5538 22.9335 17.5182 22.8543 17.4835 22.7744C17.467 22.7365 17.4502 22.6986 17.4344 22.6605C17.3954 22.567 17.3582 22.4728 17.3227 22.3778C17.3035 22.3265 17.2858 22.2747 17.2676 22.223C17.249 22.17 17.231 22.1166 17.2134 22.063C17.1945 22.005 17.1754 21.947 17.1577 21.8888C17.1313 21.8016 17.1063 21.714 17.0828 21.6258C17.0663 21.5639 17.0514 21.5015 17.0362 21.4392C17.0244 21.3902 17.013 21.3412 17.0021 21.292C16.9887 21.2315 16.9751 21.1713 16.9631 21.1106C16.9444 21.0161 16.9273 20.9211 16.912 20.8255C16.9037 20.7739 16.8965 20.7223 16.8891 20.6707C16.8782 20.5943 16.8684 20.5176 16.8597 20.4405C16.8554 20.4025 16.8504 20.3645 16.8465 20.3265C16.8354 20.2134 16.8269 20.0994 16.8205 19.985C16.8186 19.9522 16.8171 19.9193 16.8157 19.8864C16.8102 19.7641 16.8063 19.6414 16.8063 19.5179C16.8063 19.3856 16.81 19.2541 16.8163 19.1233C16.8181 19.0877 16.821 19.0524 16.823 19.017C16.829 18.9187 16.8361 18.8207 16.8455 18.7232C16.8487 18.6893 16.8526 18.6555 16.8562 18.6216C16.8677 18.5161 16.8808 18.4112 16.8963 18.3069C16.8993 18.2866 16.9022 18.2662 16.9055 18.2459C17.369 15.2847 19.4238 12.8445 22.165 11.8304ZM6.32015 14.9871C6.32015 10.4693 9.99562 6.79371 14.5135 6.79371C16.8711 6.79371 19.0982 7.81993 20.638 9.5494C17.0635 11.1022 14.5859 14.4598 14.1815 18.3823C14.1786 18.4089 14.1766 18.4356 14.1741 18.4623C14.1606 18.602 14.15 18.7423 14.142 18.8834C14.1396 18.9263 14.1369 18.9692 14.1349 19.0123C14.1272 19.1802 14.122 19.3486 14.122 19.5183C14.122 19.6896 14.127 19.8605 14.135 20.0312C14.1382 20.1 14.1439 20.168 14.1483 20.2363C14.1549 20.3346 14.1616 20.4329 14.1707 20.5308C14.1788 20.618 14.1887 20.7045 14.1989 20.7911C14.2078 20.8666 14.2172 20.9417 14.2276 21.0169C14.2413 21.1156 14.2561 21.2138 14.2723 21.3117C14.2821 21.3698 14.2929 21.4278 14.3035 21.4858C14.3236 21.5953 14.3441 21.7046 14.3675 21.8129C14.3753 21.8486 14.3841 21.8841 14.3922 21.9196C14.4833 22.3227 14.5965 22.7174 14.7313 23.1022C14.7399 23.1271 14.7474 23.1522 14.7561 23.1769C14.6752 23.1793 14.5941 23.1805 14.5133 23.1805C9.99562 23.1804 6.32015 19.5049 6.32015 14.9871ZM12.7372 32.1021C12.7077 32.1487 12.6795 32.1961 12.6505 32.2429C12.5892 32.342 12.5284 32.4413 12.4696 32.5416C12.4367 32.5976 12.405 32.6539 12.373 32.7103C12.3202 32.8034 12.2679 32.8966 12.2172 32.9907C12.1853 33.0499 12.1538 33.1094 12.1227 33.1689C12.0738 33.2624 12.0262 33.3565 11.9795 33.4509C11.9501 33.5102 11.9208 33.5694 11.8924 33.629C11.8448 33.7285 11.7991 33.8288 11.7538 33.9292C11.7293 33.9838 11.704 34.038 11.6803 34.0929C11.6279 34.2132 11.578 34.3344 11.529 34.456C11.5146 34.4916 11.4993 34.5268 11.4854 34.5624C11.4232 34.7204 11.3637 34.8794 11.3074 35.0393C11.2945 35.0759 11.2829 35.113 11.2702 35.1496C11.2278 35.2729 11.1864 35.3965 11.1474 35.5207C11.1295 35.5777 11.113 35.635 11.0958 35.6922C11.0643 35.7974 11.0333 35.9028 11.0041 36.0089C10.9868 36.072 10.9703 36.1352 10.9538 36.1985C10.9272 36.3003 10.9017 36.4023 10.8775 36.5047C10.8621 36.5696 10.8471 36.6344 10.8327 36.6994C10.8096 36.8031 10.788 36.9073 10.7672 37.0116C10.7547 37.0743 10.7418 37.137 10.7302 37.1999C10.7091 37.3135 10.6902 37.4276 10.6718 37.5418C10.6632 37.5955 10.6536 37.6489 10.6456 37.7026C10.6206 37.8704 10.5979 38.0386 10.5789 38.2076C10.5786 38.2096 10.5785 38.2117 10.5783 38.2137C10.561 38.3674 10.5461 38.5213 10.5336 38.6758H2.68469V35.3099C2.68469 30.7113 5.3283 26.5829 9.46996 24.6207C10.9788 25.4138 12.6939 25.8652 14.5134 25.8652C15.0396 25.8652 15.5674 25.8263 16.0912 25.7492C16.1728 25.8656 16.2558 25.9808 16.3417 26.0938C16.3707 26.1318 16.4007 26.1688 16.4303 26.2064C16.5151 26.3149 16.6012 26.4221 16.69 26.5272C16.7264 26.5703 16.7637 26.6125 16.8008 26.655C16.884 26.7506 16.9686 26.845 17.055 26.9374C17.1004 26.9862 17.1466 27.0341 17.1927 27.082C17.2718 27.1635 17.3519 27.2438 17.4334 27.3228C17.464 27.3525 17.4929 27.3839 17.5238 27.4133C17.4071 27.4838 17.2915 27.556 17.177 27.6297C17.1584 27.6416 17.1401 27.6543 17.1216 27.6663C17.0071 27.7407 16.8938 27.8167 16.7816 27.8941C16.7428 27.921 16.7041 27.9481 16.6655 27.9752C16.5655 28.0457 16.4665 28.1174 16.3684 28.1903C16.3374 28.2133 16.306 28.2359 16.2752 28.2593C16.1504 28.3536 16.027 28.4497 15.9053 28.548C15.8787 28.5695 15.8527 28.5916 15.8261 28.6134C15.7292 28.6927 15.6332 28.7734 15.5384 28.8553C15.5016 28.8869 15.4651 28.9189 15.4286 28.951C15.3337 29.0346 15.24 29.1194 15.1473 29.2055C15.1231 29.2279 15.0984 29.2499 15.0744 29.2726C14.9605 29.3797 14.8485 29.4888 14.738 29.5999C14.7093 29.6287 14.6812 29.6581 14.6527 29.6871C14.5682 29.7734 14.4846 29.8607 14.402 29.9491C14.3692 29.9843 14.3365 30.0195 14.304 30.055C14.2111 30.1565 14.1196 30.2593 14.0295 30.3636C14.0154 30.38 14.0008 30.3959 13.9867 30.4124C13.884 30.5322 13.7836 30.6544 13.6845 30.7778C13.6569 30.8121 13.6299 30.847 13.6026 30.8818C13.5281 30.9764 13.4547 31.072 13.3825 31.1685C13.3546 31.2058 13.3265 31.2429 13.299 31.2805C13.2045 31.4093 13.1112 31.5393 13.0206 31.6715C12.9233 31.8135 12.829 31.9573 12.7372 32.1021ZM13.1712 43.2071V41.3607V39.8411C13.1712 39.6921 13.174 39.5437 13.1795 39.3956C13.1813 39.3469 13.1852 39.2985 13.1876 39.25C13.1924 39.1512 13.197 39.0522 13.2042 38.9538C13.2087 38.8941 13.2154 38.8349 13.2207 38.7753C13.2285 38.6886 13.2355 38.6017 13.2452 38.5156C13.2523 38.4525 13.2615 38.3898 13.2696 38.3268C13.2801 38.2448 13.2899 38.1627 13.3019 38.081C13.3117 38.0161 13.3236 37.9516 13.3343 37.8869C13.3475 37.8083 13.3597 37.7293 13.3744 37.6511C13.3869 37.5849 13.4014 37.5194 13.415 37.4535C13.4305 37.3775 13.4454 37.3013 13.4625 37.2258C13.4775 37.1593 13.4947 37.0933 13.5108 37.027C13.5289 36.9532 13.5463 36.879 13.5657 36.8055C13.5834 36.7388 13.603 36.6728 13.6218 36.6066C13.6422 36.5345 13.6621 36.4623 13.6838 36.3908C13.7041 36.3242 13.7264 36.2581 13.7477 36.192C13.7706 36.1218 13.7927 36.0514 13.8167 35.9818C13.8396 35.9158 13.8641 35.8505 13.888 35.7851C13.9133 35.7161 13.938 35.6468 13.9644 35.5784C13.9896 35.5133 14.0165 35.449 14.0427 35.3843C14.0702 35.3168 14.0973 35.2488 14.126 35.1819C14.1538 35.1173 14.1831 35.0534 14.2119 34.9895C14.2416 34.9236 14.271 34.8574 14.3019 34.7922C14.3321 34.7284 14.3637 34.6655 14.395 34.6022C14.427 34.5378 14.4585 34.4732 14.4915 34.4095C14.5242 34.3466 14.5581 34.2846 14.5918 34.2225C14.6259 34.1595 14.6596 34.0966 14.6948 34.0343C14.7297 33.9725 14.7659 33.9117 14.8017 33.8506C14.838 33.7892 14.874 33.7276 14.9114 33.6666C14.9486 33.6061 14.987 33.5465 15.0252 33.4866C15.0636 33.4266 15.1018 33.3666 15.1412 33.3073C15.1807 33.2479 15.2212 33.1894 15.2618 33.1309C15.3022 33.0725 15.3424 33.0141 15.3838 32.9564C15.4254 32.8984 15.4682 32.8412 15.511 32.7839C15.5535 32.7271 15.5957 32.6703 15.6391 32.6144C15.6829 32.5578 15.7277 32.5021 15.7725 32.4463C15.817 32.391 15.8615 32.3358 15.9069 32.2813C15.9527 32.2265 15.9994 32.1725 16.0461 32.1185C16.0927 32.0647 16.1394 32.0108 16.187 31.9577C16.2347 31.9045 16.2834 31.8522 16.332 31.7998C16.3806 31.7476 16.4292 31.6957 16.4787 31.6444C16.5284 31.5928 16.579 31.5421 16.6298 31.4915C16.6804 31.4409 16.7312 31.3905 16.7828 31.3407C16.8342 31.2912 16.8864 31.2423 16.9389 31.1936C16.9915 31.1448 17.0444 31.096 17.098 31.048C17.1514 31.0002 17.2053 30.9531 17.2597 30.9062C17.3142 30.8591 17.3691 30.8123 17.4246 30.7661C17.4797 30.7202 17.5354 30.6749 17.5915 30.63C17.6481 30.5846 17.705 30.5396 17.7624 30.4952C17.8192 30.4514 17.8765 30.4082 17.9341 30.3653C17.9926 30.3216 18.0516 30.2785 18.1112 30.236C18.1694 30.1942 18.2282 30.1532 18.2874 30.1124C18.3481 30.0706 18.409 30.0294 18.4705 29.9887C18.5302 29.9493 18.5905 29.9102 18.6511 29.8717C18.7137 29.8318 18.7768 29.7925 18.8403 29.7538C18.9015 29.7165 18.9631 29.6796 19.0252 29.6433C19.0896 29.6056 19.1546 29.5684 19.2199 29.5318C19.2826 29.4966 19.3457 29.4619 19.4092 29.4278C19.4757 29.3921 19.5426 29.357 19.61 29.3224C19.6739 29.2895 19.7381 29.2571 19.8028 29.2253C19.8537 29.2004 19.9051 29.1762 19.9565 29.1519C21.4651 29.945 23.1805 30.3963 24.9999 30.3963C26.8195 30.3963 28.5347 29.945 30.0434 29.1519C30.0944 29.1761 30.1454 29.2001 30.1959 29.2248C30.2614 29.257 30.3262 29.2898 30.3909 29.3229C30.4575 29.3572 30.5238 29.3918 30.5896 29.4271C30.6537 29.4616 30.7175 29.4968 30.7809 29.5323C30.8454 29.5686 30.9096 29.6052 30.9732 29.6425C31.0362 29.6793 31.0986 29.7168 31.1606 29.7546C31.2233 29.7929 31.2855 29.8315 31.3472 29.8709C31.4087 29.9099 31.4696 29.9494 31.5302 29.9895C31.591 30.0297 31.6512 30.0705 31.7111 30.1117C31.7708 30.1529 31.8303 30.1944 31.8892 30.2365C31.9482 30.2787 32.0064 30.3214 32.0644 30.3646C32.1227 30.4078 32.1805 30.4514 32.2378 30.4957C32.2948 30.5398 32.3511 30.5843 32.4072 30.6293C32.4636 30.6745 32.5197 30.72 32.5753 30.7662C32.6305 30.8121 32.685 30.8587 32.7392 30.9055C32.7938 30.9527 32.8482 31 32.9019 31.0482C32.9551 31.0959 33.0075 31.1442 33.0598 31.1927C33.1127 31.2418 33.1654 31.2912 33.2174 31.3413C33.2685 31.3905 33.3188 31.4405 33.3689 31.4905C33.4199 31.5415 33.4709 31.5927 33.521 31.6445C33.5701 31.6955 33.6186 31.7471 33.6668 31.7989C33.7159 31.8516 33.7649 31.9045 33.813 31.9581C33.8602 32.0107 33.9065 32.064 33.9527 32.1174C33.9998 32.1718 34.0469 32.2263 34.093 32.2816C34.1382 32.3357 34.1824 32.3906 34.2265 32.4455C34.2716 32.5016 34.3167 32.5576 34.3608 32.6145C34.404 32.6702 34.446 32.7267 34.4881 32.7832C34.5311 32.8407 34.5741 32.8983 34.6159 32.9565C34.6572 33.0138 34.6973 33.0721 34.7374 33.1302C34.7781 33.189 34.8189 33.2478 34.8585 33.3074C34.8977 33.3663 34.9356 33.4259 34.9737 33.4855C35.0122 33.5458 35.0509 33.6059 35.0883 33.6669C35.1254 33.7272 35.1611 33.7884 35.197 33.8493C35.2333 33.9108 35.2698 33.9721 35.3048 34.0343C35.3399 34.0963 35.3734 34.1591 35.4074 34.2217C35.4412 34.2841 35.4753 34.3464 35.5079 34.4093C35.541 34.473 35.5724 34.5375 35.6043 34.6018C35.6356 34.665 35.6674 34.7281 35.6976 34.792C35.7285 34.8573 35.7577 34.9232 35.7873 34.989C35.8163 35.0533 35.8457 35.1172 35.8734 35.182C35.902 35.2484 35.9288 35.3157 35.9561 35.3828C35.9827 35.448 36.0098 35.513 36.0352 35.5788C36.0615 35.6468 36.0861 35.7157 36.1112 35.7844C36.1352 35.8501 36.1598 35.9154 36.1826 35.9816C36.2068 36.0516 36.229 36.1223 36.2519 36.1928C36.2732 36.2587 36.2953 36.3243 36.3155 36.3908C36.3374 36.4623 36.3571 36.5347 36.3776 36.6067C36.3964 36.6729 36.416 36.7388 36.4337 36.8055C36.4532 36.879 36.4705 36.9531 36.4886 37.027C36.5049 37.0932 36.5219 37.1593 36.537 37.2258C36.554 37.3013 36.5688 37.3774 36.5845 37.4532C36.598 37.5191 36.6125 37.5848 36.625 37.6511C36.6397 37.7287 36.6517 37.8069 36.6649 37.8851C36.6758 37.9504 36.6878 38.0154 36.6976 38.0812C36.7097 38.1621 36.7194 38.2437 36.7299 38.3251C36.7381 38.3886 36.7474 38.4517 36.7546 38.5154C36.7642 38.6016 36.7712 38.6885 36.779 38.7752C36.7844 38.8348 36.7911 38.894 36.7955 38.9537C36.8029 39.0521 36.8073 39.1512 36.8121 39.2501C36.8146 39.2985 36.8185 39.3469 36.8202 39.3955C36.8257 39.5435 36.8285 39.692 36.8285 39.841V41.3604V43.2071H13.1712ZM39.4669 38.6758C39.4406 38.3488 39.4027 38.0239 39.3547 37.7009C39.347 37.6497 39.3379 37.599 39.3297 37.548C39.3111 37.4311 39.2916 37.3144 39.27 37.1982C39.2586 37.137 39.2461 37.076 39.2339 37.015C39.2128 36.9088 39.1908 36.8029 39.1673 36.6974C39.1531 36.6337 39.1383 36.5701 39.1233 36.5067C39.0987 36.4031 39.0729 36.2999 39.0461 36.1969C39.0298 36.1345 39.0136 36.0722 38.9964 36.0099C38.967 35.9028 38.9356 35.7962 38.9037 35.6898C38.8867 35.6337 38.8706 35.5774 38.853 35.5215C38.8134 35.3954 38.7716 35.27 38.7285 35.1449C38.7164 35.11 38.7054 35.0747 38.693 35.0398C38.6364 34.8794 38.5769 34.7199 38.5145 34.5614C38.5011 34.5275 38.4865 34.4939 38.4728 34.4599C38.4232 34.3368 38.3725 34.214 38.3195 34.0921C38.296 34.038 38.2711 33.9846 38.247 33.9308C38.2013 33.8293 38.1552 33.7282 38.1071 33.6278C38.0791 33.569 38.0501 33.5106 38.0212 33.4522C37.9741 33.3569 37.9259 33.262 37.8766 33.1677C37.8458 33.1086 37.8147 33.0498 37.7831 32.9911C37.7321 32.8968 37.6797 32.8031 37.6265 32.7097C37.5946 32.6535 37.5631 32.5974 37.5304 32.5417C37.4714 32.4409 37.4103 32.3412 37.3485 32.2416C37.3198 32.1951 37.2919 32.1483 37.2626 32.1022C37.1707 31.9574 37.0765 31.8136 36.979 31.6715C36.8883 31.5391 36.795 31.4092 36.7005 31.2803C36.6731 31.243 36.6452 31.2061 36.6175 31.1691C36.5449 31.072 36.4712 30.9762 36.3964 30.8811C36.3694 30.8469 36.3427 30.8123 36.3153 30.7783C36.2161 30.6545 36.1153 30.5321 36.0124 30.412C35.999 30.3964 35.9851 30.3812 35.9717 30.3657C35.881 30.2606 35.7886 30.1569 35.695 30.0546C35.6628 30.0195 35.6305 29.9847 35.598 29.9498C35.515 29.8608 35.4309 29.7729 35.3458 29.6862C35.3177 29.6576 35.2902 29.6287 35.2619 29.6004C35.1511 29.4892 35.0386 29.3797 34.9245 29.2723C34.9011 29.2502 34.8769 29.2287 34.8533 29.2067C34.76 29.1201 34.6657 29.0349 34.5704 28.9508C34.5342 28.9189 34.4977 28.8872 34.4612 28.8555C34.3661 28.7735 34.2702 28.6928 34.1731 28.6134C34.1467 28.5918 34.1208 28.5696 34.0942 28.5481C33.9726 28.4499 33.8492 28.3538 33.7245 28.2595C33.6933 28.236 33.6617 28.2132 33.6304 28.19C33.5327 28.1175 33.4343 28.0461 33.3347 27.976C33.2956 27.9485 33.2565 27.9211 33.2174 27.894C33.1062 27.8174 32.9941 27.7422 32.8808 27.6686C32.861 27.6557 32.8415 27.6423 32.8216 27.6296C32.7073 27.5561 32.5921 27.484 32.4756 27.4137C32.5056 27.3851 32.5338 27.3546 32.5635 27.3257C32.6467 27.2451 32.7285 27.1632 32.809 27.08C32.854 27.0336 32.8987 26.987 32.9427 26.9397C33.0306 26.8458 33.1163 26.7499 33.2008 26.6529C33.2368 26.6117 33.2729 26.5707 33.3082 26.5288C33.3983 26.4223 33.4858 26.3134 33.5719 26.2032C33.6001 26.1672 33.6289 26.1318 33.6566 26.0954C33.7429 25.982 33.8262 25.8663 33.9083 25.7495C34.432 25.8264 34.9599 25.8653 35.486 25.8653C37.3056 25.8653 39.0208 25.414 40.5295 24.6208C44.6713 26.5831 47.3148 30.7114 47.3148 35.31V38.6758H39.4669Z" fill="#F44348"/>
</svg>
