<svg display="none" xmlns="http://www.w3.org/2000/svg">
<symbol id='search'>
<g clip-path="url(#clip0)">
<path d="M9.24128 17.802C5.64011 12.7168 6.84451 5.67534 11.9297 2.07503C17.0149 -1.52529 24.0563 -0.32174 27.6567 4.7643C31.257 9.84947 30.0534 16.8901 24.9674 20.4904C21.3378 23.0601 16.5391 23.258 12.7108 20.9971L4.39268 29.2654C3.49454 30.2108 2.00022 30.2487 1.05476 29.3505C0.109297 28.4533 0.0714455 26.9589 0.968727 26.0135C0.997116 25.9834 1.02465 25.9558 1.05476 25.9274L9.24128 17.802ZM18.4559 18.5728C22.4743 18.5737 25.7322 15.3183 25.7348 11.2999C25.7356 7.28151 22.4803 4.02359 18.461 4.02187C14.4478 4.02015 11.1916 7.27032 11.1838 11.2836C11.1769 15.3029 14.4306 18.5659 18.4507 18.5728C18.4524 18.5728 18.4533 18.5728 18.4559 18.5728Z"/>
</g>
</symbol>
</svg>
