<svg display="none" xmlns="http://www.w3.org/2000/svg">
<symbol id='arrow'>
<g clip-path="url(#clip0)">
<path d="M0.458282 18.894C0.458752 18.8935 0.459141 18.893 0.459686 18.8925L8.62406 10.7675C9.2357 10.1588 10.225 10.1611 10.8338 10.7728C11.4426 11.3844 11.4402 12.3737 10.8286 12.9825L5.34703 18.4375H38.4375C39.3005 18.4375 40 19.137 40 20C40 20.863 39.3005 21.5625 38.4375 21.5625H5.34711L10.8285 27.0175C11.4402 27.6262 11.4425 28.6155 10.8337 29.2272C10.2249 29.839 9.23555 29.8411 8.62398 29.2325L0.45961 21.1075C0.459141 21.107 0.458748 21.1065 0.458202 21.106C-0.153751 20.4952 -0.151798 19.5027 0.458282 18.894Z"/>
</g>
</symbol>
</svg>