<svg width="68" height="21" viewBox="0 0 68 21" fill="none" xmlns="http://www.w3.org/2000/svg">
<g id="visa">
<g id="Group">
<g id="Group_2">
<g id="Group_3">
<path id="Vector" d="M27.7922 0L24.3911 20.954H29.8189L33.2434 0H27.7922ZM44.2388 8.53341C42.3286 7.61336 41.1638 6.96933 41.1638 6.02629C41.1871 5.15225 42.1423 4.2782 44.3087 4.2782C46.0792 4.2322 47.3837 4.64622 48.3622 5.06024L48.8514 5.26725L49.5968 0.874042C48.5252 0.460022 46.8014 0 44.7048 0C39.3235 0 35.5263 2.76013 35.503 6.71632C35.4564 9.66046 38.2053 11.2705 40.2786 12.2596C42.3985 13.2486 43.0974 13.8927 43.0974 14.7897C43.0741 16.1468 41.3968 16.7678 39.8127 16.7678C37.6462 16.7678 36.4581 16.4458 34.6877 15.6867L33.9655 15.3647L33.1968 19.9189C34.478 20.471 36.8309 20.977 39.2769 21C45.0076 21 48.7116 18.2859 48.7582 14.0537C48.8281 11.7536 47.3837 9.98247 44.2388 8.53341ZM63.5741 0.0690033H59.3576C58.0531 0.0690033 57.0747 0.437021 56.5156 1.74808L48.4087 20.954H54.1394L55.7235 16.7908H62.1298L62.9452 20.977H68.0003L63.5741 0.0690033ZM57.2843 12.6046C57.4008 12.6046 59.4741 5.81928 59.4741 5.81928L61.1281 12.6046C61.1514 12.6046 58.3559 12.6046 57.2843 12.6046ZM19.8251 0L14.4672 14.2377L13.8848 11.4315C12.9064 8.18839 9.80807 4.66922 6.33704 2.92114L11.2291 20.931H17.0064L25.5791 0H19.8251Z" fill="#2E3470"/>
</g>
</g>
<path id="Vector_2" d="M12.0909 2.71413C11.6715 1.10405 10.3437 0.0230011 8.54994 0H0.0936704L0.000488281 0.391019C6.59312 2.0011 12.1375 6.94633 13.9312 11.5926L12.0909 2.71413Z" fill="#2E3470"/>
</g>
</g>
</svg>
