<svg width="31" height="30" viewBox="0 0 31 30" fill="none" xmlns="http://www.w3.org/2000/svg">
<path d="M29.0005 7.95329C29.1929 7.31641 29.0005 6.84766 28.0752 6.84766H25.0132C24.2334 6.84766 23.8747 7.25017 23.6823 7.69854C23.6823 7.69854 22.1228 11.4231 19.9185 13.8381C19.2063 14.5362 18.8788 14.7604 18.4889 14.7604C18.2966 14.7604 18.0002 14.5362 18.0002 13.8993V7.95329C18.0002 7.18903 17.7819 6.84766 17.1373 6.84766H12.3234C11.8347 6.84766 11.5436 7.20431 11.5436 7.5355C11.5436 8.259 12.6457 8.42714 12.76 10.4652V14.8877C12.76 15.8558 12.5833 16.0341 12.1934 16.0341C11.1537 16.0341 8.62715 12.2943 7.12995 8.01444C6.82843 7.18393 6.5321 6.84766 5.74711 6.84766H2.68513C1.81176 6.84766 1.63501 7.25017 1.63501 7.69854C1.63501 8.49338 2.67473 12.4421 6.47492 17.6595C9.00665 21.221 12.5729 23.152 15.8168 23.152C17.7663 23.152 18.0054 22.724 18.0054 21.9852C18.0054 18.5817 17.8287 18.2607 18.806 18.2607C19.2583 18.2607 20.0381 18.4849 21.8576 20.2019C23.9371 22.24 24.2802 23.152 25.4447 23.152H28.5067C29.38 23.152 29.8219 22.724 29.5672 21.8782C28.9849 20.1 25.0496 16.4417 24.8728 16.1972C24.4205 15.6265 24.5505 15.3718 24.8728 14.8623C24.878 14.8572 28.6158 9.70092 29.0005 7.95329Z" fill="#fff"/>
</svg>
